<?xml version="1.0" encoding="utf-8"?>
<!-- Generator: Adobe Illustrator 16.0.4, SVG Export Plug-In . SVG Version: 6.00 Build 0)  -->
<!DOCTYPE svg PUBLIC "-//W3C//DTD SVG 1.1//EN" "http://www.w3.org/Graphics/SVG/1.1/DTD/svg11.dtd">
<svg version="1.1" id="Layer_1" xmlns="http://www.w3.org/2000/svg" xmlns:xlink="http://www.w3.org/1999/xlink" x="0px" y="0px"
	 width="100px" height="100px" viewBox="0 0 100 100" enable-background="new 0 0 100 100" xml:space="preserve">
<g id="Layer_2" display="none">
	<path display="inline" fill="#FFFF00" d="M65.205,19.129c1.074-0.171,1.818-1.17,1.646-2.264l-0.877-5.533
		c-0.172-1.074-1.189-1.813-2.266-1.643c-1.075,0.169-1.816,1.188-1.646,2.263l0.877,5.533C63.111,18.579,64.13,19.3,65.205,19.129z
		"/>
	<path display="inline" fill="#FFFF00" d="M85.688,34.014c0.17,1.071,1.17,1.818,2.263,1.644l5.532-0.876
		c1.074-0.171,1.818-1.188,1.647-2.264c-0.169-1.076-1.192-1.815-2.267-1.648l-5.534,0.877
		C86.238,31.92,85.516,32.938,85.688,34.014z"/>
	<path display="inline" fill="#FFFF00" d="M78.08,19.57c-0.312,0.448-0.422,0.976-0.342,1.467c0.078,0.497,0.346,0.978,0.781,1.304
		c0.891,0.627,2.125,0.435,2.766-0.437l3.291-4.542c0.658-0.884,0.46-2.129-0.436-2.758c-0.873-0.662-2.121-0.462-2.757,0.436
		L78.08,19.57z"/>
	<path display="inline" fill="#FFFF00" d="M53.091,23.527l-4.538-3.289c-0.874-0.659-2.119-0.46-2.774,0.438
		c-0.321,0.44-0.411,0.958-0.333,1.46c0.082,0.508,0.328,0.983,0.771,1.302l4.534,3.301c0.897,0.63,2.146,0.432,2.776-0.439
		C54.162,25.402,53.968,24.177,53.091,23.527z"/>
	<path display="inline" fill="#FFFF00" d="M82.132,48.793c0.081,0.503,0.349,0.99,0.783,1.315l4.545,3.296
		c0.881,0.637,2.122,0.438,2.757-0.438c0.652-0.91,0.456-2.15-0.439-2.777l-4.534-3.303c-0.877-0.63-2.111-0.436-2.769,0.439
		C82.162,47.774,82.057,48.313,82.132,48.793z"/>
	<path display="inline" fill="#FFFF00" d="M57.58,33.392c1.252-3.831,4.539-6.84,8.777-7.51c6.021-0.955,11.692,3.171,12.646,9.191
		c0.477,3.016-0.324,5.941-1.982,8.222c0.951,0.953,1.819,1.998,2.586,3.108c2.68-3.216,4.008-7.517,3.307-11.948
		c-1.295-8.179-8.994-13.783-17.176-12.485c-5.314,0.841-9.525,4.393-11.494,9.029C55.449,31.652,56.57,32.462,57.58,33.392z"/>
</g>
<g id="Layer_3" display="none">
	<path display="inline" fill="#FFF200" d="M50.308,21.297c-11.903,0-21.585,9.687-21.585,21.583
		c0,11.897,9.682,21.603,21.585,21.603c11.917,0,21.583-9.705,21.583-21.603C71.891,30.983,62.225,21.297,50.308,21.297z
		 M50.308,58.777c-8.77,0-15.896-7.129-15.896-15.898c0-8.768,7.126-15.896,15.896-15.896c8.752,0,15.896,7.128,15.896,15.896
		C66.204,51.648,59.061,58.777,50.308,58.777z M50.308,17.253c1.579,0,2.842-1.274,2.842-2.843V6.342
		c0-1.568-1.264-2.843-2.842-2.843c-1.568,0-2.842,1.275-2.842,2.843v8.068C47.465,15.979,48.74,17.253,50.308,17.253z
		 M50.308,68.729c-1.568,0-2.842,1.293-2.842,2.855v8.073c0,1.569,1.274,2.844,2.842,2.844c1.579,0,2.842-1.274,2.842-2.844v-8.073
		C53.15,70.021,51.887,68.729,50.308,68.729z M28.075,24.799c0.563,0.553,1.29,0.827,2.017,0.827c0.726,0,1.451-0.274,2.016-0.827
		c1.108-1.107,1.108-2.919,0-4.033l-5.701-5.7c-1.118-1.109-2.926-1.109-4.032,0c-1.109,1.107-1.109,2.917,0,4.032L28.075,24.799z
		 M72.538,61.197c-1.128-1.109-2.907-1.109-4.032,0c-1.113,1.127-1.113,2.904,0,4.033l5.7,5.701
		c0.563,0.562,1.288,0.825,2.017,0.825c0.736,0,1.453-0.263,2.018-0.825c1.111-1.123,1.111-2.904,0-4.035L72.538,61.197z M24.559,43
		c0-1.568-1.275-2.843-2.843-2.843h-8.068c-1.568,0-2.843,1.275-2.843,2.843c0,1.578,1.275,2.843,2.843,2.843h8.068
		C23.283,45.843,24.559,44.578,24.559,43z M86.963,40.157h-8.074c-1.562,0-2.854,1.275-2.854,2.843c0,1.578,1.293,2.843,2.854,2.843
		h8.074c1.568,0,2.842-1.265,2.842-2.843C89.805,41.432,88.531,40.157,86.963,40.157z M28.075,61.2l-5.703,5.696
		c-1.109,1.131-1.109,2.912-0.001,4.035c0.563,0.564,1.29,0.826,2.017,0.826c0.726,0,1.452-0.262,2.017-0.824l5.703-5.701
		c1.108-1.127,1.108-2.906,0-4.032C30.998,60.088,29.185,60.088,28.075,61.2z M70.52,25.628c0.73,0,1.453-0.276,2.018-0.825
		l5.701-5.7c1.113-1.119,1.113-2.925,0-4.033c-1.125-1.108-2.903-1.109-4.033,0l-5.701,5.699c-1.109,1.111-1.109,2.924-0.001,4.034
		C69.066,25.352,69.785,25.628,70.52,25.628z"/>
</g>
<path display="none" fill="#FFFFFF" d="M80.348,57.331c-0.656,0-1.312,0.063-1.961,0.128C77.005,47.746,68.292,40.25,57.855,40.25
	c-11.448,0-20.766,8.937-20.766,19.948c0,0.397,0.021,0.774,0.034,1.141c-6.964,1.185-12.272,7.021-12.272,14.043
	c0,7.876,6.635,14.277,14.813,14.277h40.683c9.266,0,16.799-7.255,16.799-16.165C97.146,64.605,89.613,57.331,80.348,57.331z
	 M80.348,85.098H39.666c-5.562,0-10.074-4.336-10.074-9.716c0-5.288,4.489-9.653,10.006-9.666l3.038,0.063l-0.533-2.764
	c-0.178-0.947-0.268-1.877-0.268-2.816c0-8.494,7.188-15.388,16.021-15.388c8.793,0,15.935,6.871,15.99,15.343l-0.003,3.119
	l3.067-0.861c1.126-0.344,2.277-0.518,3.438-0.518c6.652,0,12.061,5.203,12.061,11.601C92.407,79.895,87,85.098,80.348,85.098z"/>
<path fill="#BBBBBB" d="M35.52,31.1c4.176,0,7.95,1.628,10.786,4.269c1.515-0.754,3.121-1.365,4.792-1.806
	c-3.78-4.391-9.353-7.158-15.577-7.158c-11.337,0-20.563,9.224-20.563,20.563c0,0.383,0.008,0.793,0.046,1.194
	C8.081,49.357,2.816,55.381,2.816,62.646c0,8.088,6.586,14.688,14.688,14.688h2.363c-0.138-0.988-0.215-1.947-0.215-2.938
	c0-0.627,0.032-1.186,0.079-1.774h-2.227c-5.508,0-9.983-4.47-9.983-9.978c0-5.504,4.452-9.974,9.914-10.006l3.028,0.071
	l-0.539-2.838c-0.178-0.964-0.269-1.951-0.269-2.904C19.655,38.214,26.772,31.1,35.52,31.1z M80.156,55.779
	c-0.645,0-1.285,0.035-1.93,0.104c-1.375-10.005-10.004-17.73-20.379-17.73c-11.346,0-20.57,9.223-20.57,20.564
	c0,0.384,0.021,0.793,0.031,1.185c-6.892,1.191-12.163,7.25-12.163,14.494c0,8.086,6.581,14.688,14.688,14.688h40.322
	c9.18,0,16.66-7.49,16.66-16.668C96.816,63.236,89.336,55.779,80.156,55.779z M80.156,84.371H39.834
	c-5.508,0-10.001-4.469-10.001-9.975c0-5.5,4.447-9.985,9.938-9.998l3,0.062l-0.511-2.823c-0.179-1.004-0.27-1.965-0.27-2.918
	c0-8.754,7.115-15.869,15.857-15.869c8.721,0,15.789,7.053,15.873,15.744v3.313l3.025-0.903c1.113-0.37,2.266-0.533,3.408-0.533
	c6.609,0,11.947,5.375,11.947,11.946C92.104,78.995,86.766,84.371,80.156,84.371z"/>
<path display="none" fill="#FFF200" d="M51.309,19.833C41.213,19.833,33,28.045,33,38.134c0,10.086,8.213,18.327,18.309,18.327
	c10.104,0,18.301-8.241,18.301-18.327C69.607,28.045,61.412,19.833,51.309,19.833z M51.309,51.623
	c-7.439,0-13.482-6.049-13.482-13.489c0-7.437,6.042-13.482,13.482-13.482c7.424,0,13.481,6.045,13.481,13.482
	C64.79,45.574,58.732,51.623,51.309,51.623z M51.309,16.399c1.336,0,2.408-1.078,2.408-2.41V7.146c0-1.328-1.072-2.41-2.408-2.41
	c-1.328,0-2.41,1.082-2.41,2.41v6.843C48.899,15.321,49.98,16.399,51.309,16.399z M51.309,60.057c-1.328,0-2.41,1.101-2.41,2.424
	v6.849c0,1.328,1.082,2.41,2.41,2.41c1.336,0,2.408-1.082,2.408-2.41V62.48C53.717,61.156,52.645,60.057,51.309,60.057z
	 M32.45,22.802c0.481,0.467,1.097,0.698,1.712,0.698c0.614,0,1.229-0.231,1.711-0.698c0.938-0.938,0.938-2.477,0-3.423l-4.836-4.833
	c-0.947-0.939-2.484-0.939-3.42,0c-0.939,0.937-0.939,2.476,0,3.423L32.45,22.802z M70.163,53.668c-0.962-0.943-2.47-0.943-3.423,0
	c-0.941,0.961-0.941,2.463,0,3.424l4.833,4.834c0.479,0.482,1.093,0.697,1.712,0.697c0.627,0,1.23-0.215,1.712-0.697
	c0.94-0.953,0.94-2.459,0-3.424L70.163,53.668z M29.467,38.237c0-1.328-1.078-2.41-2.41-2.41h-6.843
	c-1.328,0-2.409,1.082-2.409,2.41c0,1.327,1.082,2.409,2.409,2.409h6.843C28.389,40.646,29.467,39.563,29.467,38.237z
	 M82.396,35.827h-6.853c-1.319,0-2.418,1.082-2.418,2.41c0,1.327,1.099,2.409,2.418,2.409h6.853c1.33,0,2.408-1.083,2.408-2.409
	C84.805,36.909,83.727,35.827,82.396,35.827z M32.45,53.672l-4.835,4.83c-0.939,0.965-0.939,2.471-0.001,3.424
	c0.479,0.484,1.096,0.699,1.712,0.699c0.614,0,1.229-0.215,1.711-0.697l4.836-4.832c0.938-0.965,0.938-2.467,0-3.424
	C34.932,52.725,33.393,52.725,32.45,53.672z M68.449,23.502c0.621,0,1.229-0.233,1.712-0.696l4.834-4.836
	c0.942-0.947,0.942-2.482,0-3.42c-0.952-0.938-2.46-0.939-3.425,0l-4.834,4.832c-0.938,0.944-0.938,2.483,0,3.424
	C67.219,23.269,67.824,23.502,68.449,23.502z"/>
</svg>
