<?xml version="1.0" encoding="utf-8"?>
<!-- Generator: Adobe Illustrator 16.0.4, SVG Export Plug-In . SVG Version: 6.00 Build 0)  -->
<!DOCTYPE svg PUBLIC "-//W3C//DTD SVG 1.1//EN" "http://www.w3.org/Graphics/SVG/1.1/DTD/svg11.dtd">
<svg version="1.1" id="Layer_1" xmlns="http://www.w3.org/2000/svg" xmlns:xlink="http://www.w3.org/1999/xlink" x="0px" y="0px"
	 width="100px" height="100px" viewBox="0 0 100 100" enable-background="new 0 0 100 100" xml:space="preserve">
<g id="Layer_1_1_" display="none">
	<path display="inline" fill="#CCCCCC" d="M77.635,48.19c-0.732,0-1.457,0.038-2.168,0.119C73.928,37.208,64.378,28.63,52.866,28.63
		c-12.579,0-22.813,10.242-22.813,22.818c0,0.431,0.018,0.878,0.037,1.323c-7.663,1.319-13.506,8.018-13.506,16.051
		c0,8.296,6.231,15.143,14.241,16.152c0.804-1.591,1.705-3.277,2.727-5.066h-0.679c-6.099,0-11.07-4.969-11.07-11.086
		c0-6.083,4.933-11.043,11.007-11.08l3.343,0.076l-0.585-3.146c-0.203-1.085-0.297-2.172-0.297-3.226
		c0-9.703,7.888-17.6,17.594-17.6c9.705,0,17.589,7.897,17.589,17.615v3.511l3.364-1.011c1.246-0.375,2.518-0.569,3.814-0.569
		c7.311,0,13.242,5.947,13.242,13.258c0,6.922-5.342,12.623-12.137,13.199c0.314,1.28,0.475,2.43,0.475,3.428
		c0,0.613-0.021,1.185-0.087,1.771c9.476-0.773,16.967-8.718,16.967-18.398C96.096,56.467,87.82,48.19,77.635,48.19z"/>
</g>
<g id="Layer_6" display="none">
	<path display="inline" fill="#FFFF00" d="M10.398,40.434c0-1.04-0.837-1.897-1.897-1.897H3.135c-1.043,0-1.897,0.857-1.897,1.897
		c0,1.045,0.854,1.897,1.897,1.897h5.366C9.562,42.331,10.398,41.479,10.398,40.434z M27.556,23.279c1.04,0,1.896-0.835,1.896-1.896
		v-5.367c0-1.041-0.857-1.897-1.896-1.897c-1.046,0-1.898,0.856-1.898,1.897v5.367C25.658,22.444,26.51,23.279,27.556,23.279z
		 M12.747,28.313c0.376,0.364,0.857,0.546,1.337,0.546c0.483,0,0.976-0.182,1.351-0.546c0.729-0.749,0.729-1.947,0-2.683
		l-3.805-3.797c-0.741-0.753-1.947-0.753-2.675,0c-0.755,0.728-0.755,1.939,0,2.675L12.747,28.313z M12.747,52.555l-3.794,3.805
		c-0.755,0.729-0.755,1.938-0.001,2.695c0.365,0.37,0.845,0.53,1.331,0.53c0.493,0,0.981-0.16,1.346-0.53l3.807-3.797
		c0.729-0.754,0.729-1.967,0-2.701C14.68,51.828,13.488,51.826,12.747,52.555z M41.014,28.861c0.49,0,0.986-0.182,1.361-0.545
		l3.795-3.805c0.74-0.739,0.74-1.947,0-2.676c-0.758-0.755-1.961-0.754-2.689,0l-3.806,3.795c-0.729,0.738-0.729,1.934-0.001,2.686
		C40.047,28.679,40.54,28.861,41.014,28.861z M22.751,49.788c-3.435-1.764-5.792-5.321-5.792-9.436
		c0-5.838,4.758-10.59,10.597-10.59c2.924,0,5.572,1.195,7.486,3.109c1.041-0.758,2.161-1.423,3.328-1.982
		c-2.646-3.017-6.513-4.919-10.814-4.919c-7.935,0-14.391,6.448-14.391,14.382c0,5.159,2.731,9.677,6.823,12.239
		C20.789,51.547,21.724,50.602,22.751,49.788z"/>
</g>
<g id="Layer_2" display="none">
	<path display="inline" fill="#82B2E4" d="M37.302,80.377C36,84.1,37.547,88.182,41.134,89.534c3.586,1.362,7.752-0.765,9.051-4.47
		c2.096-5.965,0.395-19.229,0.395-19.229S39.665,73.654,37.302,80.377z"/>
	<path display="inline" fill="#82B2E4" d="M71.582,82.688c2.096-5.965,0.395-19.227,0.395-19.227s-10.914,7.824-13.272,14.544
		c-1.304,3.716,0.243,7.808,3.827,9.153C66.117,88.518,70.283,86.398,71.582,82.688z"/>
	<path display="inline" fill="#82B2E4" d="M49.602,73.958c-1.303,3.715,0.247,7.815,3.839,9.162
		c3.582,1.351,7.746-0.765,9.047-4.479c2.096-5.967,0.398-19.223,0.398-19.223S51.977,67.238,49.602,73.958z"/>
</g>
<g id="Layer_3" display="none">
</g>
<g id="Layer_4" display="none">
	<polyline display="inline" fill="#FFA500" points="66.452,73.409 57.339,73.409 63.648,62.191 52.432,62.191 44.019,79.018 
		52.432,79.018 44.019,95.843 66.452,73.409 	"/>
</g>
<g id="Layer_5" display="none">
	<path id="polyline18" display="inline" fill="#FFFFFF" d="M35.636,57.969l-2.101,1.198v1.104l1.412,0.095l-0.059,0.948
		l-1.139,0.026l-0.839,0.634l0.839,0.642l1.044,0.018v0.488l-0.753,0.024l0.034,0.849l0.702,0.034l0.017,0.576l-1.566-0.73
		l-0.146,1.669l-0.497-0.231l0.325-0.642l-0.693-0.429l-0.428,0.668l-0.462-0.291l0.506-0.898l-0.044-1.087l-1.042,0.41
		l-0.532,0.935l-0.89-0.41l0.616-1.164l-0.984-0.582l-2.054,1.179l-0.03,2.406l0.963,0.53l0.753-1.112l0.856,0.472l-0.599,1.001
		l0.111,1.026L30,66.921l0.522-0.983l0.514,0.274l-0.411,0.709l0.771,0.445l0.366-0.705l0.549,0.319l-1.472,1.069l1.472,1.074
		l-0.549,0.325l-0.366-0.702l-0.771,0.444l0.411,0.72l-0.514,0.257L30,69.193l-1.044-0.411l-0.111,1.026l0.599,1.01l-0.856,0.463
		l-0.753-1.112l-0.963,0.548l0.03,2.396l2.054,1.181l0.984-0.563l-0.616-1.183l0.89-0.409l0.532,0.924l1.042,0.41l0.044-1.078
		l-0.506-0.908l0.462-0.289l0.428,0.666l0.693-0.428l-0.325-0.634l0.497-0.239l0.146,1.679l1.566-0.736l-0.017,0.601l-0.702,0.017
		l-0.034,0.854l0.753,0.019v0.479l-1.044,0.017l-0.839,0.649l0.839,0.625l1.139,0.025l0.059,0.959l-1.412,0.104v1.096l2.101,1.193
		l2.097-1.193v-1.096L36.33,75.75l0.051-0.959l1.147-0.025l0.839-0.625l-0.839-0.649l-1.062-0.017v-0.479l0.753-0.019l-0.017-0.854
		L36.5,72.104l-0.034-0.6l1.558,0.736l0.171-1.678l0.497,0.238l-0.325,0.635l0.685,0.428l0.411-0.668l0.479,0.291l-0.501,0.906
		l0.022,1.08l1.062-0.412l0.53-0.924l0.89,0.41l-0.614,1.182l0.991,0.564l2.055-1.182l0.025-2.396l-0.967-0.548l-0.754,1.111
		l-0.855-0.463l0.582-1.008l-0.086-1.027l-1.044,0.41l-0.531,0.977l-0.53-0.257l0.428-0.72l-0.77-0.444l-0.36,0.702l-0.547-0.325
		l1.472-1.074l-1.472-1.069l0.547-0.319l0.36,0.705l0.77-0.445l-0.428-0.709l0.53-0.274l0.531,0.983l1.044,0.401l0.086-1.026
		l-0.582-1.001l0.855-0.472l0.754,1.112l0.967-0.53l-0.025-2.406L42.32,61.82l-0.991,0.582l0.614,1.164l-0.89,0.41l-0.53-0.935
		l-1.062-0.41l-0.022,1.087l0.501,0.898l-0.479,0.291L39.05,64.24l-0.685,0.429l0.325,0.642l-0.497,0.231l-0.171-1.669l-1.558,0.73
		l0.034-0.576l0.702-0.034l0.017-0.849l-0.753-0.024v-0.488l1.062-0.018l0.839-0.642l-0.839-0.634l-1.147-0.026l-0.051-0.948
		l1.403-0.095v-1.104L35.636,57.969z"/>
	<path id="polyline18_1_" display="inline" fill="#FFFFFF" d="M44.966,71.555l-2.102,1.199v1.104l1.412,0.095L44.218,74.9
		l-1.139,0.026l-0.839,0.634l0.839,0.641l1.043,0.018v0.488l-0.752,0.025l0.033,0.848l0.702,0.035l0.017,0.576l-1.565-0.73
		l-0.146,1.668l-0.497-0.23l0.325-0.643l-0.693-0.428l-0.428,0.668l-0.462-0.291l0.506-0.898l-0.044-1.088l-1.042,0.41l-0.532,0.934
		l-0.89-0.41l0.616-1.164l-0.984-0.581l-2.054,1.18l-0.03,2.406l0.963,0.53l0.753-1.112l0.856,0.471l-0.599,1.002l0.111,1.025
		l1.044-0.4l0.522-0.983l0.514,0.274l-0.411,0.709l0.771,0.445l0.366-0.705l0.549,0.317l-1.472,1.07l1.472,1.074l-0.549,0.326
		l-0.366-0.703l-0.771,0.445l0.411,0.719l-0.514,0.258l-0.522-0.977l-1.044-0.41l-0.111,1.027l0.599,1.008l-0.856,0.463
		l-0.753-1.111l-0.963,0.547l0.03,2.396l2.054,1.182l0.984-0.564l-0.616-1.182l0.89-0.41l0.532,0.924l1.042,0.41l0.044-1.078
		l-0.506-0.908l0.462-0.288l0.428,0.666l0.693-0.429l-0.325-0.633l0.497-0.24l0.146,1.679l1.565-0.736l-0.017,0.601l-0.702,0.018
		l-0.033,0.855l0.752,0.018v0.479l-1.043,0.019l-0.839,0.649l0.839,0.623l1.139,0.027l0.059,0.959l-1.412,0.102v1.097l2.102,1.194
		l2.097-1.194v-1.097l-1.403-0.102l0.051-0.959l1.147-0.027l0.839-0.623l-0.839-0.649l-1.062-0.019v-0.48l0.753-0.018l-0.017-0.855
		l-0.702-0.018l-0.034-0.601l1.558,0.736l0.172-1.679l0.496,0.24l-0.325,0.633l0.685,0.429l0.41-0.666l0.48,0.288l-0.503,0.91
		l0.021,1.078l1.062-0.41l0.529-0.924l0.892,0.409l-0.613,1.183l0.99,0.563l2.055-1.182l0.025-2.396l-0.967-0.547l-0.755,1.111
		l-0.854-0.464l0.582-1.008l-0.086-1.026l-1.045,0.409l-0.529,0.978l-0.531-0.258l0.427-0.72l-0.769-0.444l-0.36,0.703l-0.548-0.326
		l1.473-1.073l-1.473-1.07l0.548-0.318l0.36,0.705l0.769-0.445l-0.427-0.709l0.531-0.275l0.529,0.984l1.045,0.4l0.086-1.025
		l-0.582-1.002l0.854-0.471l0.755,1.113l0.967-0.531l-0.025-2.406l-2.055-1.18l-0.99,0.582l0.613,1.164l-0.892,0.41l-0.529-0.935
		l-1.062-0.41l-0.021,1.089l0.502,0.897l-0.48,0.291l-0.41-0.668l-0.685,0.428l0.325,0.644l-0.496,0.229l-0.172-1.668l-1.558,0.729
		l0.034-0.575l0.702-0.035l0.017-0.849l-0.753-0.024v-0.488l1.062-0.018l0.839-0.642l-0.839-0.633L45.71,74.9l-0.051-0.949
		l1.403-0.094v-1.104L44.966,71.555z"/>
	<path id="polyline18_2_" display="inline" fill="#FFFFFF" d="M66.174,69.093l-2.357,1.347v1.236l1.584,0.106l-0.065,1.063
		l-1.276,0.03l-0.941,0.71l0.941,0.719l1.17,0.021v0.548l-0.844,0.028l0.037,0.951l0.787,0.039l0.02,0.646l-1.756-0.819
		l-0.164,1.872l-0.558-0.259l0.365-0.721l-0.777-0.48l-0.479,0.749l-0.521-0.325l0.568-1.009l-0.05-1.221l-1.17,0.46l-0.597,1.048
		l-0.998-0.46l0.689-1.307l-1.104-0.653l-2.304,1.323l-0.034,2.699l1.08,0.598l0.846-1.25l0.961,0.529l-0.672,1.123l0.123,1.15
		l1.174-0.449l0.584-1.104l0.576,0.309l-0.46,0.797l0.863,0.498l0.412-0.791l0.616,0.357l-1.652,1.201l1.652,1.205l-0.616,0.365
		l-0.412-0.789l-0.863,0.5l0.46,0.807l-0.576,0.29l-0.584-1.097l-1.174-0.459l-0.123,1.15l0.672,1.131l-0.961,0.52l-0.846-1.245
		l-1.08,0.612l0.034,2.688l2.304,1.326l1.104-0.634l-0.689-1.326l0.998-0.461l0.597,1.037l1.17,0.461l0.05-1.209l-0.568-1.021
		l0.521-0.323l0.479,0.746l0.777-0.479l-0.365-0.711l0.558-0.27l0.164,1.883l1.756-0.826l-0.02,0.673l-0.787,0.021l-0.037,0.959
		l0.844,0.021v0.536l-1.17,0.021l-0.941,0.729l0.941,0.699l1.276,0.029l0.065,1.076l-1.584,0.113v1.23l2.357,1.342l2.354-1.342
		v-1.23l-1.575-0.113l0.058-1.076l1.288-0.029l0.94-0.699l-0.94-0.729l-1.19-0.021V85.95l0.845-0.021l-0.019-0.959l-0.789-0.021
		l-0.037-0.673l1.748,0.826l0.191-1.883l0.557,0.27l-0.365,0.711l0.769,0.479l0.461-0.746l0.539,0.323l-0.563,1.021l0.024,1.209
		l1.192-0.461l0.594-1.037l0.999,0.461l-0.688,1.326l1.111,0.634l2.307-1.326l0.027-2.688l-1.084-0.612l-0.847,1.245l-0.96-0.52
		l0.652-1.131l-0.097-1.15l-1.172,0.459l-0.595,1.097l-0.596-0.29l0.479-0.807l-0.864-0.5l-0.404,0.789l-0.613-0.365l1.652-1.205
		l-1.652-1.201l0.613-0.357l0.404,0.791l0.864-0.498l-0.479-0.797l0.596-0.309l0.595,1.104l1.172,0.449l0.097-1.15l-0.652-1.123
		l0.96-0.529l0.847,1.25l1.084-0.598l-0.027-2.699l-2.307-1.323l-1.111,0.653l0.688,1.307l-0.999,0.46l-0.594-1.048l-1.192-0.46
		l-0.024,1.221l0.563,1.009l-0.539,0.325l-0.461-0.749l-0.769,0.48l0.365,0.721l-0.557,0.259l-0.191-1.872l-1.748,0.819l0.037-0.646
		l0.789-0.039l0.019-0.951l-0.845-0.028v-0.548l1.19-0.021l0.94-0.719l-0.94-0.71l-1.288-0.03l-0.058-1.063l1.575-0.106v-1.236
		L66.174,69.093z"/>
	<path id="polyline18_3_" display="inline" fill="#FFFFFF" d="M65.621,71.555l-2.102,1.199v1.104l1.412,0.095L64.873,74.9
		l-1.139,0.026l-0.84,0.634l0.84,0.641l1.043,0.018v0.488l-0.752,0.025l0.033,0.848l0.7,0.035l0.019,0.576l-1.566-0.73l-0.145,1.668
		l-0.498-0.23l0.326-0.643l-0.693-0.428l-0.428,0.668l-0.463-0.291l0.506-0.898l-0.043-1.088l-1.043,0.41l-0.531,0.934l-0.891-0.41
		l0.615-1.164l-0.984-0.581l-2.053,1.18l-0.031,2.406l0.963,0.53l0.754-1.112l0.854,0.471l-0.599,1.002l0.111,1.025l1.043-0.4
		l0.522-0.983L61.02,79.8l-0.412,0.709l0.771,0.445l0.366-0.705l0.549,0.317l-1.472,1.07l1.472,1.074l-0.549,0.326l-0.366-0.703
		l-0.771,0.445l0.412,0.719l-0.515,0.258l-0.522-0.977l-1.043-0.41l-0.111,1.027l0.599,1.008l-0.854,0.463l-0.754-1.111
		l-0.963,0.547l0.031,2.396l2.053,1.182l0.984-0.564l-0.615-1.182l0.891-0.41l0.531,0.924l1.043,0.41l0.043-1.078l-0.506-0.908
		l0.463-0.288l0.428,0.666l0.693-0.429l-0.326-0.633l0.498-0.24l0.145,1.679l1.566-0.736l-0.019,0.601l-0.7,0.018l-0.033,0.855
		l0.752,0.018v0.479l-1.043,0.019l-0.84,0.649l0.84,0.623l1.139,0.027l0.059,0.959l-1.412,0.102v1.097l2.103,1.194l2.096-1.194
		v-1.097l-1.401-0.102l0.051-0.959l1.146-0.027l0.84-0.623l-0.84-0.649l-1.062-0.019v-0.48l0.752-0.018l-0.017-0.855l-0.703-0.018
		l-0.032-0.601l1.557,0.736l0.173-1.679l0.496,0.24l-0.324,0.633l0.684,0.429l0.41-0.666l0.48,0.288l-0.503,0.908l0.021,1.078
		l1.063-0.41l0.529-0.924l0.892,0.41l-0.613,1.182l0.99,0.564l2.055-1.182l0.025-2.396l-0.968-0.547l-0.754,1.111l-0.854-0.463
		l0.582-1.008l-0.086-1.027l-1.045,0.41l-0.529,0.977l-0.531-0.258l0.428-0.719l-0.77-0.445L69.5,83.035l-0.549-0.326l1.473-1.074
		l-1.473-1.07l0.549-0.317l0.359,0.705l0.77-0.445l-0.428-0.709l0.531-0.274l0.529,0.983l1.045,0.4l0.086-1.025l-0.582-1.002
		l0.854-0.471l0.754,1.112l0.968-0.53l-0.025-2.406l-2.055-1.18l-0.99,0.581l0.613,1.164l-0.892,0.41l-0.529-0.934l-1.063-0.41
		l-0.021,1.088l0.503,0.898l-0.48,0.291l-0.41-0.668l-0.684,0.428l0.324,0.643l-0.496,0.23l-0.173-1.668l-1.557,0.73l0.032-0.576
		l0.703-0.035l0.017-0.848l-0.752-0.025v-0.488l1.062-0.018l0.84-0.641l-0.84-0.634L66.365,74.9l-0.051-0.949l1.401-0.094v-1.104
		L65.621,71.555z"/>
	<path display="inline" fill="#CCCCCC" d="M51.122,84.898c-19.088,0-34.622-15.539-34.622-34.625
		c0-14.307,8.588-26.941,21.876-32.186c1.083-0.423,2.328-0.089,3.045,0.793c0.73,0.907,0.796,2.166,0.162,3.139
		c-2.906,4.441-4.441,9.601-4.441,14.933c0,15.049,12.245,27.294,27.305,27.294c5.324,0,10.488-1.528,14.929-4.429
		c0.942-0.627,2.263-0.559,3.142,0.158c0.903,0.729,1.223,1.957,0.795,3.039C78.064,76.314,65.432,84.898,51.122,84.898z
		 M37.198,22.483C26.696,27.71,20.044,38.344,20.044,50.274c0,17.14,13.946,31.082,31.078,31.082
		c11.922,0,22.562-6.652,27.791-17.149c-4.437,2.358-9.392,3.597-14.466,3.597c-17.009,0-30.846-13.844-30.846-30.849
		C33.601,31.87,34.839,26.922,37.198,22.483z"/>
</g>
<g id="Layer_7">
	<path fill="#CCCCCC" d="M39.968,60.239c-0.418,0-0.835,0.034-1.247,0.075c-0.879-6.429-6.428-11.386-13.07-11.386
		c-7.289,0-13.22,5.913-13.22,13.198c0,0.265,0.014,0.515,0.022,0.756c-4.435,0.784-7.814,4.646-7.814,9.293
		c0,5.209,4.224,9.445,9.432,9.445h25.898c5.898,0,10.696-4.8,10.696-10.696C50.664,65.045,45.867,60.239,39.968,60.239z
		 M39.968,78.604H14.07c-3.541,0-6.415-2.867-6.415-6.428c0-3.5,2.859-6.392,6.371-6.396l1.934,0.041l-0.339-1.828
		c-0.113-0.626-0.17-1.241-0.17-1.864c0-5.621,4.575-10.183,10.201-10.183c5.599,0,10.142,4.548,10.179,10.152l-0.002,2.064
		l1.953-0.569c0.718-0.228,1.448-0.345,2.188-0.345c4.235,0,7.679,3.443,7.679,7.677C47.647,75.16,44.204,78.604,39.968,78.604z"/>
</g>
<g id="Layer_8">
	<path fill="#AAAAAA" d="M93.371,58.963c-1.018-0.854-2.585-0.963-3.732-0.23c-4.32,2.717-9.326,4.168-14.477,4.168
		c-14.996,0-27.196-12.207-27.196-27.194c0-5.167,1.441-10.17,4.158-14.474c0.744-1.176,0.647-2.679-0.226-3.744
		c-0.89-1.03-2.396-1.403-3.637-0.893C37.12,21.156,28.893,31.391,26.772,43.282c-0.197,1.11,0.544,2.173,1.645,2.367
		c1.118,0.211,2.171-0.532,2.37-1.643c1.708-9.606,7.917-17.989,16.46-22.45c-2.204,4.349-3.363,9.186-3.363,14.149
		c0,17.246,14.039,31.275,31.278,31.275c4.955,0,9.79-1.17,14.145-3.39c-5.33,10.265-16.152,16.97-27.74,16.97
		c-3.034,0-6.028-0.449-8.924-1.306c-1.094-0.34-2.222,0.286-2.56,1.378c-0.309,1.062,0.287,2.217,1.378,2.528
		c3.303,0.993,6.684,1.479,10.105,1.479c14.164,0,27.285-8.852,32.701-22.053C94.785,61.329,94.417,59.859,93.371,58.963z"/>
</g>
</svg>
