<?xml version="1.0" encoding="utf-8"?>
<!-- Generator: Adobe Illustrator 16.0.4, SVG Export Plug-In . SVG Version: 6.00 Build 0)  -->
<!DOCTYPE svg PUBLIC "-//W3C//DTD SVG 1.1//EN" "http://www.w3.org/Graphics/SVG/1.1/DTD/svg11.dtd">
<svg version="1.1" id="Layer_1" xmlns="http://www.w3.org/2000/svg" xmlns:xlink="http://www.w3.org/1999/xlink" x="0px" y="0px"
	 width="100px" height="100px" viewBox="0 0 100 100" enable-background="new 0 0 100 100" xml:space="preserve">
<g id="Layer_1_1_">
	<path fill="#BBBBBB" d="M73.879,27.943c-0.829,0-1.648,0.044-2.453,0.135C69.682,15.511,58.871,5.802,45.841,5.802
		c-14.238,0-25.822,11.592-25.822,25.829c0,0.487,0.021,0.993,0.044,1.498c-8.675,1.494-15.289,9.074-15.289,18.168
		c0,9.391,7.053,17.143,16.121,18.285c0.908-1.803,1.929-3.71,3.086-5.736h-0.77c-6.904,0-12.53-5.627-12.53-12.549
		c0-6.886,5.584-12.499,12.46-12.543l3.78,0.088l-0.66-3.56c-0.229-1.23-0.337-2.459-0.337-3.651
		c0-10.983,8.929-19.922,19.916-19.922c10.988,0,19.912,8.939,19.912,19.94v3.973l3.809-1.142c1.41-0.428,2.849-0.646,4.317-0.646
		c8.272,0,14.989,6.731,14.989,15.006c0,7.834-6.049,14.29-13.736,14.941c0.352,1.451,0.536,2.751,0.536,3.881
		c0,0.689-0.024,1.339-0.099,2.006c10.724-0.877,19.205-9.869,19.205-20.828C94.773,37.309,85.408,27.943,73.879,27.943z"/>
</g>
<g id="Layer_2" display="none">
	<path display="inline" fill="#82B2E4" d="M24.122,74.918c-1.303,3.723,0.245,7.805,3.832,9.157c3.586,1.362,7.752-0.765,9.052-4.47
		c2.096-5.965,0.395-19.229,0.395-19.229S26.485,68.195,24.122,74.918z"/>
	<path display="inline" fill="#82B2E4" d="M23.569,93.037c2.095-5.965,0.395-19.227,0.395-19.227S13.049,81.636,10.69,88.355
		c-1.304,3.715,0.243,7.807,3.827,9.151C18.104,98.868,22.27,96.749,23.569,93.037z"/>
	<path display="inline" fill="#82B2E4" d="M56.589,73.958c-1.303,3.715,0.247,7.815,3.839,9.162
		c3.582,1.351,7.747-0.765,9.049-4.479c2.094-5.967,0.396-19.223,0.396-19.223S58.964,67.238,56.589,73.958z"/>
</g>
<g id="Layer_3" display="none">
</g>
<g id="Layer_4" display="none">
	<polyline display="inline" fill="#FFA500" points="64.105,68.646 51.919,68.646 60.355,53.646 45.356,53.646 34.106,76.146 
		45.356,76.146 34.106,98.646 64.105,68.646 	"/>
</g>
<g id="Layer_5">
	<path id="polyline18" fill="#BBBBBB" d="M35.636,57.969l-2.101,1.198v1.104l1.412,0.095l-0.059,0.948l-1.139,0.025l-0.839,0.635
		l0.839,0.642l1.044,0.018v0.488l-0.753,0.024l0.034,0.849l0.702,0.034l0.017,0.576l-1.566-0.73l-0.146,1.669l-0.497-0.231
		l0.325-0.642l-0.693-0.429l-0.428,0.668l-0.462-0.291l0.506-0.898l-0.044-1.087l-1.042,0.41l-0.532,0.935l-0.89-0.41l0.616-1.164
		l-0.984-0.581l-2.054,1.179l-0.03,2.406l0.963,0.529l0.753-1.111l0.856,0.472l-0.599,1.001l0.111,1.026L30,66.921l0.522-0.983
		l0.514,0.274l-0.411,0.709l0.771,0.445l0.366-0.705l0.549,0.319l-1.472,1.068l1.472,1.074l-0.549,0.325l-0.366-0.702l-0.771,0.443
		l0.411,0.721l-0.514,0.257L30,69.193l-1.044-0.411l-0.111,1.026l0.599,1.01l-0.856,0.463l-0.753-1.112l-0.963,0.548l0.03,2.396
		l2.054,1.181l0.984-0.563l-0.616-1.183l0.89-0.409l0.532,0.924l1.042,0.41l0.044-1.078l-0.506-0.908l0.462-0.288l0.428,0.666
		l0.693-0.429l-0.325-0.634l0.497-0.239l0.146,1.68l1.566-0.736l-0.017,0.602l-0.702,0.017l-0.034,0.854l0.753,0.019v0.479
		l-1.044,0.017l-0.839,0.649l0.839,0.625l1.139,0.024l0.059,0.959l-1.412,0.104v1.096l2.101,1.193l2.097-1.193v-1.096L36.33,75.75
		l0.051-0.959l1.147-0.025l0.839-0.625l-0.839-0.648l-1.062-0.018v-0.479l0.753-0.02l-0.017-0.854l-0.702-0.02l-0.034-0.6
		l1.558,0.736l0.171-1.678l0.497,0.237l-0.325,0.636l0.685,0.428l0.411-0.668l0.479,0.291l-0.501,0.906l0.022,1.08l1.062-0.412
		l0.53-0.925l0.89,0.41l-0.614,1.183l0.991,0.563l2.055-1.183l0.025-2.396l-0.967-0.548l-0.754,1.111l-0.855-0.463l0.582-1.008
		l-0.086-1.027l-1.044,0.41l-0.531,0.977l-0.53-0.257l0.428-0.72l-0.77-0.444l-0.36,0.702l-0.547-0.325l1.472-1.074l-1.472-1.069
		l0.547-0.318l0.36,0.705l0.77-0.445l-0.428-0.709l0.53-0.273l0.531,0.982l1.044,0.4l0.086-1.025l-0.582-1.001l0.855-0.472
		l0.754,1.111l0.967-0.529l-0.025-2.406L42.32,61.82l-0.991,0.582l0.614,1.164l-0.89,0.41l-0.53-0.936l-1.062-0.41l-0.022,1.087
		l0.501,0.898l-0.479,0.291L39.05,64.24l-0.685,0.429l0.325,0.642l-0.497,0.231l-0.171-1.669l-1.558,0.73l0.034-0.576l0.702-0.034
		l0.017-0.849l-0.753-0.024v-0.488l1.062-0.018l0.839-0.642l-0.839-0.635l-1.147-0.025l-0.051-0.948l1.403-0.095v-1.104
		L35.636,57.969z"/>
	<path id="polyline18_1_" fill="#BBBBBB" d="M53.164,74.674l-2.102,1.199v1.104l1.412,0.094l-0.061,0.949l-1.141,0.027l-0.837,0.633
		l0.837,0.641l1.043,0.02v0.488l-0.752,0.023L51.6,80.7l0.702,0.034l0.017,0.576l-1.563-0.729l-0.146,1.668l-0.498-0.229
		l0.325-0.644l-0.693-0.428l-0.428,0.668l-0.462-0.291l0.506-0.898l-0.044-1.088l-1.042,0.41l-0.532,0.935l-0.89-0.41l0.616-1.164
		l-0.984-0.582l-2.054,1.181l-0.03,2.405l0.963,0.531l0.753-1.112L46.972,82l-0.599,1.002l0.111,1.025l1.044-0.4l0.522-0.984
		l0.514,0.275l-0.411,0.709l0.771,0.445l0.366-0.705l0.549,0.318l-1.472,1.068l1.472,1.074l-0.549,0.324l-0.366-0.701l-0.771,0.443
		l0.411,0.721l-0.514,0.258l-0.522-0.979l-1.044-0.41l-0.111,1.027l0.599,1.008l-0.856,0.463l-0.753-1.109L44.4,87.422l0.03,2.396
		L46.484,91l0.984-0.564l-0.616-1.182l0.89-0.41l0.532,0.924l1.042,0.41L49.36,89.1l-0.506-0.908l0.462-0.289l0.428,0.666
		l0.693-0.428l-0.325-0.633l0.498-0.24l0.146,1.678l1.564-0.734l-0.018,0.602l-0.701,0.018l-0.033,0.855l0.752,0.018v0.479
		l-1.043,0.02l-0.838,0.648l0.838,0.623l1.14,0.027l0.06,0.959l-1.412,0.102v1.097l2.103,1.194l2.097-1.194v-1.097l-1.402-0.102
		l0.052-0.959l1.146-0.027l0.84-0.623l-0.84-0.648l-1.062-0.02v-0.479l0.753-0.018l-0.018-0.855l-0.701-0.018l-0.034-0.602
		l1.558,0.734l0.172-1.678l0.496,0.24l-0.324,0.633l0.686,0.428l0.41-0.666l0.479,0.289L56.968,89.1l0.021,1.078l1.063-0.41
		l0.529-0.924l0.892,0.41l-0.615,1.182L59.85,91l2.055-1.182l0.025-2.396l-0.968-0.547l-0.754,1.111l-0.854-0.463l0.582-1.008
		l-0.086-1.027l-1.045,0.41l-0.531,0.977l-0.528-0.258l0.428-0.719l-0.771-0.445l-0.359,0.703l-0.548-0.326l1.473-1.074l-1.473-1.07
		l0.548-0.316l0.359,0.705l0.771-0.445l-0.428-0.709l0.528-0.273l0.531,0.982l1.045,0.398l0.086-1.023L59.354,82l0.854-0.471
		l0.754,1.113l0.968-0.531l-0.025-2.406l-2.055-1.18l-0.992,0.582l0.615,1.164l-0.892,0.41l-0.529-0.936l-1.063-0.41l-0.021,1.088
		l0.503,0.898l-0.479,0.291l-0.41-0.67l-0.687,0.43l0.326,0.645l-0.496,0.229l-0.173-1.668l-1.558,0.729l0.033-0.576l0.703-0.033
		l0.017-0.85l-0.753-0.023v-0.488l1.062-0.02l0.838-0.641l-0.838-0.633l-1.147-0.027l-0.052-0.949l1.404-0.094v-1.104L53.164,74.674
		z"/>
	<path id="polyline18_2_" fill="#BBBBBB" d="M61.93,54.5l-2.103,1.199v1.104l1.411,0.094l-0.059,0.949l-1.14,0.027l-0.839,0.633
		l0.839,0.641l1.043,0.02v0.486l-0.752,0.025l0.032,0.848l0.701,0.035l0.019,0.576l-1.563-0.729l-0.146,1.668l-0.497-0.229
		l0.326-0.645l-0.693-0.43l-0.428,0.668l-0.463-0.291l0.506-0.896l-0.043-1.088l-1.043,0.41l-0.532,0.934l-0.89-0.408l0.614-1.164
		l-0.983-0.582l-2.054,1.18l-0.03,2.406l0.963,0.531l0.754-1.113l0.854,0.471l-0.601,1.002l0.111,1.025l1.045-0.4l0.521-0.984
		l0.515,0.275l-0.41,0.709l0.771,0.445l0.366-0.705l0.55,0.318l-1.474,1.068l1.474,1.074l-0.55,0.324l-0.366-0.703l-0.771,0.445
		l0.41,0.719l-0.515,0.26l-0.521-0.979l-1.045-0.41l-0.111,1.027l0.601,1.008l-0.854,0.463l-0.754-1.109l-0.963,0.547l0.03,2.396
		l2.054,1.183l0.983-0.563l-0.614-1.183l0.89-0.41l0.532,0.925l1.043,0.409l0.043-1.077l-0.506-0.908l0.463-0.289l0.428,0.666
		l0.693-0.429l-0.326-0.633l0.497-0.239l0.146,1.678l1.563-0.735l-0.019,0.601l-0.701,0.018l-0.032,0.855l0.752,0.018v0.479
		l-1.043,0.02l-0.839,0.648l0.839,0.623l1.14,0.027l0.059,0.959l-1.411,0.102v1.098l2.103,1.193l2.096-1.193v-1.098l-1.401-0.102
		l0.051-0.959l1.146-0.027l0.841-0.623l-0.841-0.648l-1.062-0.02v-0.479l0.753-0.018l-0.017-0.855l-0.702-0.018l-0.034-0.601
		l1.558,0.735l0.172-1.678l0.496,0.239l-0.323,0.633l0.687,0.429l0.408-0.666l0.479,0.289l-0.502,0.908l0.021,1.077l1.062-0.409
		l0.529-0.925l0.891,0.41l-0.613,1.183l0.99,0.563l2.056-1.183l0.024-2.396l-0.967-0.547l-0.754,1.109l-0.854-0.463l0.582-1.008
		l-0.087-1.027l-1.045,0.41l-0.529,0.979l-0.53-0.26l0.429-0.719l-0.771-0.445l-0.36,0.703l-0.548-0.324l1.474-1.074l-1.474-1.068
		l0.548-0.318l0.36,0.705l0.771-0.445l-0.429-0.709l0.53-0.275l0.529,0.984l1.045,0.4L68.7,62.83l-0.582-1.002l0.854-0.471
		l0.754,1.113l0.967-0.531l-0.024-2.406l-2.056-1.18l-0.99,0.582l0.613,1.164l-0.891,0.408l-0.529-0.934l-1.062-0.41l-0.021,1.088
		l0.502,0.896l-0.479,0.291l-0.408-0.668l-0.687,0.43l0.323,0.645l-0.496,0.229l-0.172-1.668l-1.558,0.729l0.034-0.576l0.702-0.035
		l0.017-0.848l-0.753-0.025v-0.486l1.062-0.02l0.841-0.641l-0.841-0.633l-1.146-0.027l-0.051-0.949l1.401-0.094v-1.104L61.93,54.5z"
		/>
</g>
</svg>
